<?xml version="1.0" standalone="no"?>
<!DOCTYPE svg PUBLIC "-//W3C//DTD SVG 20010904//EN"
 "http://www.w3.org/TR/2001/REC-SVG-20010904/DTD/svg10.dtd">
<svg version="1.0" xmlns="http://www.w3.org/2000/svg"
 width="325.000000pt" height="325.000000pt" viewBox="0 0 325.000000 325.000000"
 preserveAspectRatio="xMidYMid meet">
<metadata>
Created by potrace 1.16, written by Peter Selinger 2001-2019
</metadata>
<g transform="translate(0.000000,325.000000) scale(0.100000,-0.100000)"
fill="#000000" stroke="none">
<path d="M1620 2460 c0 -11 -7 -20 -15 -20 -8 0 -15 -7 -15 -15 0 -11 -12 -15
-50 -15 -43 0 -50 -3 -50 -20 0 -13 -7 -20 -20 -20 -17 0 -20 -7 -20 -50 0
-38 -4 -50 -15 -50 -8 0 -15 -7 -15 -15 0 -8 -9 -15 -20 -15 -16 0 -20 -7 -20
-35 0 -24 -5 -35 -15 -35 -11 0 -15 -12 -15 -50 0 -38 -4 -50 -15 -50 -8 0
-15 -7 -15 -14 0 -11 -15 -16 -52 -18 -52 -3 -53 -4 -56 -35 -3 -32 -22 -47
-22 -18 0 11 -11 15 -40 15 -29 0 -40 -4 -40 -15 0 -8 -7 -15 -15 -15 -8 0
-15 -9 -15 -20 0 -18 -7 -20 -65 -20 -58 0 -65 2 -65 20 0 17 -7 20 -50 20
-38 0 -50 4 -50 15 0 12 -13 15 -55 15 -42 0 -55 -3 -55 -15 0 -10 -11 -15
-35 -15 -28 0 -35 -4 -35 -20 0 -11 -7 -20 -15 -20 -10 0 -15 -11 -15 -35 0
-33 2 -35 35 -35 28 0 35 4 35 20 0 11 -7 20 -15 20 -8 0 -15 7 -15 15 0 11
12 15 50 15 38 0 50 -4 50 -15 0 -11 12 -15 50 -15 38 0 50 4 50 15 0 10 11
15 35 15 24 0 35 -5 35 -15 0 -10 -11 -15 -35 -15 -28 0 -35 -4 -35 -20 0 -16
7 -20 35 -20 24 0 35 -5 35 -15 0 -10 11 -15 35 -15 24 0 35 -5 35 -15 0 -8 7
-15 15 -15 11 0 15 -11 15 -40 l0 -41 -50 7 c-46 6 -50 5 -50 -15 0 -17 -6
-21 -35 -21 -28 0 -35 4 -35 20 0 11 -7 20 -15 20 -8 0 -15 7 -15 15 0 12 -13
15 -55 15 -42 0 -55 -3 -55 -15 0 -10 -10 -15 -30 -15 -27 0 -30 3 -30 30 0
28 3 30 35 30 28 0 35 4 35 20 0 11 7 20 15 20 8 0 15 7 15 15 0 10 -11 15
-35 15 -24 0 -35 -5 -35 -15 0 -8 -9 -15 -20 -15 -11 0 -20 -7 -20 -15 0 -8
-7 -15 -15 -15 -11 0 -15 -11 -15 -40 0 -29 4 -40 15 -40 8 0 15 -7 15 -15 0
-10 11 -15 35 -15 33 0 35 -2 35 -35 0 -24 5 -35 15 -35 8 0 15 -7 15 -15 0
-12 13 -15 55 -15 42 0 55 3 55 15 0 8 7 15 15 15 10 0 15 -11 15 -35 0 -24 5
-35 15 -35 8 0 15 -7 15 -15 0 -10 11 -15 35 -15 35 0 35 0 35 -45 0 -38 3
-45 20 -45 16 0 20 7 20 30 0 20 5 30 15 30 8 0 15 7 15 15 0 8 -7 15 -15 15
-11 0 -15 12 -15 50 l0 50 35 0 c24 0 35 -5 35 -15 0 -10 11 -15 35 -15 24 0
35 -5 35 -15 0 -8 7 -15 15 -15 8 0 15 -9 15 -20 0 -11 -7 -20 -15 -20 -10 0
-15 -11 -15 -35 0 -24 -5 -35 -15 -35 -8 0 -15 -4 -15 -10 0 -16 47 -12 54 5
3 9 18 15 36 15 20 0 30 5 30 15 0 8 9 15 20 15 13 0 20 7 20 20 0 11 7 20 15
20 8 0 15 5 15 10 0 6 -13 10 -30 10 -23 0 -30 4 -30 20 0 19 7 20 100 20 82
0 100 -3 100 -15 0 -11 12 -15 50 -15 38 0 50 4 50 15 0 12 14 15 70 15 53 0
70 -3 70 -14 0 -8 -15 -17 -35 -20 -21 -4 -35 -13 -35 -21 0 -8 -7 -15 -15
-15 -8 0 -15 -7 -15 -15 0 -8 -9 -15 -20 -15 -13 0 -20 -7 -20 -20 0 -11 -7
-20 -15 -20 -22 0 -18 -17 5 -23 11 -3 20 -12 20 -21 0 -9 7 -16 15 -16 8 0
15 -7 15 -15 0 -8 7 -15 15 -15 8 0 15 -9 15 -20 0 -13 7 -20 20 -20 16 0 20
-7 20 -30 0 -20 5 -30 15 -30 12 0 15 -13 15 -55 0 -40 -4 -55 -14 -55 -7 0
-16 -9 -19 -20 -4 -16 -14 -20 -50 -20 -32 0 -47 -5 -51 -16 -5 -14 -20 -15
-110 -9 -125 9 -226 -1 -226 -21 0 -11 -22 -14 -105 -14 -87 0 -105 3 -105 15
0 8 -7 15 -15 15 -8 0 -15 -7 -15 -15 0 -8 -9 -15 -20 -15 -12 0 -20 7 -20 16
0 9 9 18 20 21 11 3 20 10 20 15 0 5 -9 12 -20 15 -11 3 -20 12 -20 19 0 8 -7
14 -15 14 -10 0 -15 11 -15 35 0 32 2 35 30 35 20 0 30 -5 30 -15 0 -8 9 -15
20 -15 17 0 20 7 20 50 0 37 -4 50 -15 50 -11 0 -15 16 -17 67 -2 55 -6 68
-20 71 -15 3 -18 -5 -18 -52 0 -49 -2 -56 -20 -56 -17 0 -20 -7 -20 -50 0 -38
-4 -50 -15 -50 -12 0 -15 -13 -15 -55 0 -42 3 -55 15 -55 8 0 15 -4 15 -10 0
-5 -7 -10 -15 -10 -8 0 -15 -9 -15 -20 0 -11 -7 -20 -15 -20 -8 0 -15 -7 -15
-15 0 -8 -9 -15 -20 -15 -16 0 -20 -7 -20 -35 0 -24 -5 -35 -15 -35 -8 0 -15
-7 -15 -15 0 -8 -9 -15 -20 -15 -17 0 -20 -7 -20 -40 0 -39 1 -40 35 -40 24 0
35 -5 35 -15 0 -12 18 -15 105 -15 87 0 105 3 105 15 0 8 9 15 20 15 13 0 20
7 20 20 0 16 7 20 35 20 24 0 35 5 35 15 0 11 12 15 45 15 33 0 45 -4 45 -15
0 -12 20 -15 120 -15 100 0 120 3 120 15 0 12 13 15 55 15 42 0 55 3 55 15 0
12 13 15 60 15 47 0 60 -3 60 -15 0 -8 9 -15 20 -15 11 0 20 -7 20 -15 0 -8
-9 -15 -20 -15 -11 0 -20 -7 -20 -15 0 -8 -7 -15 -15 -15 -8 0 -15 -9 -15 -20
0 -11 7 -20 15 -20 8 0 15 -9 15 -20 0 -16 7 -20 35 -20 24 0 35 -5 35 -15 0
-12 13 -15 55 -15 42 0 55 3 55 15 0 10 11 15 35 15 28 0 35 4 35 20 0 11 7
20 15 20 8 0 15 7 15 15 0 8 9 15 20 15 16 0 20 7 20 35 0 24 5 35 15 35 11 0
15 12 15 50 0 28 5 50 10 50 6 0 10 -16 10 -35 0 -28 4 -35 20 -35 11 0 20 -7
20 -15 0 -8 7 -15 15 -15 8 0 15 -7 15 -15 0 -8 9 -15 20 -15 11 0 20 7 20 15
0 8 -7 15 -15 15 -8 0 -15 9 -15 20 0 11 7 20 15 20 8 0 15 -9 15 -20 0 -11 7
-20 15 -20 8 0 15 -7 15 -15 0 -11 11 -15 40 -15 29 0 40 4 40 15 0 10 10 15
30 15 20 0 30 5 30 15 0 8 9 15 20 15 18 0 20 7 20 55 0 48 -2 55 -20 55 -18
0 -20 7 -20 55 0 42 -3 55 -15 55 -11 0 -15 12 -15 50 0 38 -4 50 -15 50 -10
0 -15 10 -15 30 0 23 -4 30 -20 30 -13 0 -20 7 -20 20 0 11 -7 20 -15 20 -10
0 -15 11 -15 35 0 28 -4 35 -20 35 -11 0 -20 7 -20 15 0 8 -7 15 -15 15 -8 0
-15 7 -15 15 0 10 11 15 35 15 24 0 35 5 35 15 0 8 5 15 10 15 6 0 10 -7 10
-15 0 -11 11 -15 40 -15 29 0 40 4 40 15 0 10 11 15 35 15 24 0 35 5 35 15 0
10 10 15 31 15 22 0 32 5 36 20 3 11 12 20 19 20 8 0 14 7 14 15 0 10 11 15
35 15 24 0 35 5 35 15 0 8 7 15 15 15 11 0 15 11 15 40 0 29 -4 40 -15 40 -8
0 -15 7 -15 15 0 8 7 15 15 15 10 0 15 11 15 35 0 33 -2 35 -35 35 -28 0 -35
4 -35 20 0 17 -7 20 -50 20 -38 0 -50 4 -50 15 0 12 -14 15 -70 15 -53 0 -70
-3 -70 -14 0 -7 -9 -16 -20 -19 -11 -3 -20 -12 -20 -21 0 -9 -4 -16 -10 -16
-5 0 -10 9 -10 20 0 18 -7 20 -55 20 -48 0 -55 -2 -55 -20 0 -17 -7 -20 -45
-20 l-45 0 0 120 c0 113 -1 120 -20 120 -17 0 -20 7 -20 50 0 38 -4 50 -15 50
-10 0 -15 11 -15 35 0 28 -4 35 -20 35 -11 0 -20 7 -20 15 0 8 -7 15 -15 15
-8 0 -15 9 -15 20 0 11 -7 20 -15 20 -8 0 -15 7 -15 15 0 8 -9 15 -20 15 -11
0 -20 7 -20 15 0 8 -7 15 -15 15 -10 0 -15 11 -15 35 0 34 -1 35 -40 35 -29 0
-40 -4 -40 -15 0 -8 -4 -15 -10 -15 -5 0 -10 7 -10 15 0 8 -9 15 -20 15 -13 0
-20 7 -20 20 0 13 -7 20 -20 20 -13 0 -20 -7 -20 -20z m140 -75 c0 -8 9 -15
20 -15 11 0 20 -6 20 -14 0 -8 7 -16 15 -20 8 -3 15 -12 15 -21 0 -8 6 -15 14
-15 9 0 16 -12 18 -32 3 -29 7 -33 36 -36 28 -3 32 -7 32 -33 0 -19 -5 -29
-15 -29 -10 0 -15 -11 -15 -35 0 -28 -4 -35 -20 -35 -11 0 -20 -7 -20 -15 0
-8 -7 -15 -15 -15 -11 0 -15 12 -15 50 0 38 -4 50 -15 50 -10 0 -15 11 -15 35
0 28 -4 35 -20 35 -16 0 -20 7 -20 35 0 24 -5 35 -15 35 -8 0 -15 7 -15 15 0
8 -9 15 -20 15 -11 0 -20 7 -20 15 0 8 9 15 20 15 11 0 20 7 20 15 0 8 7 15
15 15 8 0 15 -7 15 -15z m-230 -29 c0 -17 37 -27 68 -19 20 5 22 2 22 -31 0
-29 4 -36 20 -36 13 0 20 -7 20 -20 0 -11 7 -20 15 -20 8 0 15 -7 15 -15 0 -8
7 -15 15 -15 10 0 15 -11 15 -35 0 -28 4 -35 20 -35 17 0 20 -7 20 -50 l0 -50
-50 0 c-38 0 -50 -4 -50 -15 0 -12 -16 -15 -85 -15 -69 0 -85 3 -85 15 0 10
-11 15 -35 15 -28 0 -35 4 -35 20 0 11 -7 20 -15 20 -11 0 -15 12 -15 50 0 38
4 50 15 50 10 0 15 11 15 35 0 24 5 35 15 35 8 0 15 7 15 15 0 8 9 15 20 15
17 0 20 7 20 50 0 43 3 50 20 50 11 0 20 -6 20 -14z m870 -511 c0 -12 14 -15
70 -15 63 0 70 -2 70 -20 0 -11 7 -20 15 -20 8 0 15 -7 15 -15 0 -10 -10 -15
-30 -15 -20 0 -30 -5 -30 -15 0 -10 10 -15 30 -15 28 0 30 -3 30 -35 l0 -35
-50 0 c-38 0 -50 4 -50 15 0 8 -7 15 -15 15 -8 0 -15 -7 -15 -15 0 -8 7 -15
15 -15 10 0 15 -11 15 -35 0 -32 -2 -35 -30 -35 -21 0 -30 5 -30 16 0 9 -9 18
-20 21 -11 3 -20 12 -20 19 0 8 -7 14 -15 14 -8 0 -15 -9 -15 -20 0 -11 7 -20
15 -20 10 0 15 -10 15 -30 0 -20 -5 -30 -15 -30 -8 0 -15 -7 -15 -15 0 -10
-10 -15 -34 -15 -21 0 -36 6 -40 15 -3 8 -12 15 -21 15 -8 0 -15 7 -15 15 0 8
-7 15 -15 15 -8 0 -15 9 -15 20 0 11 -7 20 -15 20 -8 0 -15 7 -15 15 0 8 -9
15 -20 15 -11 0 -20 -7 -20 -15 0 -8 -7 -15 -15 -15 -8 0 -15 7 -15 15 0 8 -7
15 -15 15 -8 0 -15 7 -15 15 0 8 7 15 15 15 8 0 15 -7 15 -15 0 -8 7 -15 15
-15 8 0 15 7 15 15 0 10 11 15 35 15 23 0 35 5 35 14 0 18 31 26 108 26 48 0
62 3 62 15 0 12 -16 15 -85 15 -69 0 -85 -3 -85 -15 0 -11 -11 -15 -36 -15
-34 0 -36 1 -29 28 3 15 13 31 21 35 8 4 14 15 14 22 0 10 10 15 30 15 23 0
30 -4 30 -20 0 -13 7 -20 20 -20 13 0 20 7 20 20 0 16 7 20 35 20 24 0 35 5
35 15 0 10 10 15 30 15 20 0 30 -5 30 -15z m-200 -475 c0 -11 7 -20 15 -20 8
0 15 -7 15 -15 0 -8 9 -15 20 -15 17 0 20 -7 20 -50 0 -43 -3 -50 -20 -50 -11
0 -20 -7 -20 -15 0 -8 -7 -15 -15 -15 -8 0 -15 -9 -15 -20 0 -16 -7 -20 -35
-20 -24 0 -35 5 -35 15 0 10 -11 15 -35 15 -24 0 -35 5 -35 15 0 8 -7 15 -15
15 -11 0 -15 11 -15 40 0 33 3 40 20 40 11 0 20 7 20 15 0 8 4 15 9 15 5 0 11
9 14 20 4 15 14 20 36 20 21 0 31 5 31 15 0 8 9 15 20 15 13 0 20 -7 20 -20z
m-202 -287 c2 -21 9 -33 18 -33 11 0 14 -15 14 -65 0 -51 -3 -65 -15 -65 -10
0 -15 -11 -15 -35 0 -25 -4 -35 -16 -35 -9 0 -18 -9 -21 -20 -6 -23 -33 -27
-33 -5 0 10 -10 15 -30 15 -16 0 -30 -4 -30 -10 0 -5 7 -10 15 -10 8 0 15 -9
15 -20 0 -13 -7 -20 -20 -20 -11 0 -20 7 -20 15 0 8 -7 15 -15 15 -8 0 -15 -7
-15 -15 0 -8 -9 -15 -20 -15 -23 0 -27 28 -5 36 25 10 17 24 -15 24 -20 0 -30
-5 -30 -15 0 -8 -9 -15 -20 -15 -12 0 -20 7 -20 16 0 9 9 18 20 21 11 3 20 12
20 19 0 8 9 14 21 14 18 0 20 4 14 31 -6 25 -4 31 14 36 27 7 27 33 1 33 -13
0 -20 7 -20 20 0 11 7 20 15 20 8 0 15 7 15 15 0 8 9 15 20 15 13 0 20 7 20
20 0 16 7 20 35 20 25 0 35 4 35 16 0 11 8 14 33 12 28 -3 32 -7 35 -35z
m-1018 -53 c0 -12 7 -20 16 -20 9 0 18 9 21 20 9 35 33 24 33 -15 0 -24 -5
-35 -15 -35 -8 0 -15 -9 -15 -20 0 -16 -7 -20 -35 -20 -24 0 -35 -5 -35 -15 0
-11 -12 -15 -50 -15 -38 0 -50 -4 -50 -15 0 -8 -9 -15 -20 -15 -13 0 -20 7
-20 20 0 13 7 20 20 20 11 0 20 7 20 15 0 8 7 15 15 15 10 0 15 11 15 35 0 24
5 35 15 35 8 0 15 7 15 15 0 10 11 15 35 15 28 0 35 -4 35 -20z"/>
<path d="M1430 1305 c0 -8 -8 -15 -19 -15 -10 0 -21 -9 -24 -20 -3 -11 -12
-20 -21 -20 -12 0 -16 -10 -16 -35 0 -24 -5 -35 -15 -35 -29 0 -14 -19 20 -26
20 -3 35 -12 35 -20 0 -8 7 -14 15 -14 8 0 15 7 15 15 0 8 7 15 15 15 11 0 15
16 17 67 2 55 6 68 21 71 12 2 17 -3 17 -17 0 -12 6 -21 15 -21 10 0 15 11 15
35 0 35 0 35 -45 35 -33 0 -45 -4 -45 -15z"/>
</g>
</svg>
